<svg width="122" height="50" viewBox="0 0 122 50" fill="none" xmlns="http://www.w3.org/2000/svg">
<g clip-path="url(#clip0_212_513)">
<path d="M106.683 1.84613C110.791 1.84613 114.312 3.23073 117.252 5.98896C120.193 8.7531 121.659 12.0682 121.659 15.9469C121.659 19.8316 120.193 23.1416 117.252 25.8813C116.853 26.2525 116.444 26.5985 116.024 26.9191C109.105 23.5466 101.796 21.9342 101.645 15.952C102.918 18.3533 103.652 19.6763 106.392 20.969C106.61 20.6601 106.843 20.2889 107.076 19.9978C108.252 18.5246 108.499 19.0925 111.137 18.5465C113.354 18.0884 113.858 17.1611 114.016 14.8273C112.001 13.2031 112.581 14.3244 111.339 11.6792C110.576 10.055 109.933 9.9217 107.908 9.51416L108.115 6.30284C103.567 7.31534 100.394 10.9215 98.7996 14.9142C96.8104 19.8991 97.419 23.264 98.4163 27.6709C97.6084 27.1596 96.8382 26.5639 96.1066 25.8821C93.1847 23.1298 91.7179 19.8206 91.7179 15.9478C91.7179 12.0809 93.1847 8.76491 96.1066 5.9898C99.0473 3.23157 102.568 1.84697 106.682 1.84697L106.683 1.84613Z" fill="#3D4A39"/>
<path d="M109.978 8.70079L110.238 8.11185C111.335 8.54132 112.339 9.18341 113.247 10.0373L113.247 10.0381C114.165 10.8988 114.853 11.8455 115.312 12.8782C115.772 13.9127 116.001 15.0306 116.001 16.2304C116.001 17.4412 115.771 18.5643 115.31 19.5987C114.851 20.6306 114.163 21.5714 113.245 22.4194C112.331 23.269 111.326 23.9052 110.233 24.3305C109.135 24.7574 107.951 24.97 106.683 24.97C105.395 24.97 104.2 24.7583 103.098 24.3322C101.998 23.9069 100.997 23.269 100.094 22.4177L100.093 22.4185C99.1847 21.5647 98.5015 20.6205 98.0446 19.5861C97.5877 18.5525 97.3588 17.4336 97.3588 16.2304C97.3588 15.0365 97.5877 13.9228 98.0437 12.8883C98.4998 11.8556 99.1829 10.9055 100.091 10.0398C100.989 9.18426 101.987 8.54132 103.087 8.11185L103.347 8.70079C102.331 9.09735 101.406 9.69304 100.574 10.4862C99.7278 11.2928 99.0931 12.1754 98.6703 13.133C98.2493 14.0873 98.0384 15.1201 98.0384 16.2304C98.0384 17.3509 98.2493 18.3879 98.6712 19.3414C99.0931 20.2956 99.7278 21.1715 100.573 21.9671V21.968C101.412 22.7594 102.34 23.3509 103.355 23.7441C104.37 24.1364 105.479 24.3322 106.682 24.3322C107.864 24.3322 108.962 24.1364 109.975 23.7424C110.985 23.3492 111.917 22.7577 112.767 21.9671L112.768 21.9663C113.621 21.1791 114.258 20.3083 114.683 19.3557C115.107 18.4006 115.319 17.3594 115.319 16.2313C115.319 15.1142 115.108 14.078 114.684 13.1229C114.259 12.1669 113.621 11.2886 112.766 10.4887H112.765C111.919 9.69304 110.989 9.09651 109.977 8.70079H109.978ZM106.683 1.84613C108.781 1.84613 110.731 2.20051 112.536 2.90842C114.338 3.61548 115.99 4.67439 117.492 6.08262H117.492C118.993 7.49337 120.12 9.04841 120.872 10.7469C121.624 12.4462 122 14.2856 122 16.2659C122 18.2495 121.623 20.0889 120.872 21.7849C120.121 23.4791 118.994 25.0266 117.492 26.4264C115.996 27.8202 114.347 28.8657 112.544 29.5634C110.739 30.2612 108.786 30.6105 106.683 30.6105V30.6097C104.571 30.6038 102.612 30.2519 100.808 29.5542C99.0042 28.8564 97.357 27.8143 95.8687 26.4272L95.8678 26.4264C94.375 25.0207 93.2538 23.4707 92.5052 21.7773C91.7556 20.0822 91.3795 18.2453 91.3795 16.2676C91.3795 14.2923 91.7556 12.4563 92.5052 10.757C93.2538 9.06022 94.375 7.5035 95.8678 6.08515L95.8687 6.08431C97.3705 4.67608 99.0222 3.61717 100.826 2.9101C102.63 2.20219 104.582 1.84782 106.684 1.84782L106.683 1.84613ZM112.275 3.49651C110.556 2.82235 108.693 2.48401 106.683 2.48401C104.67 2.48401 102.805 2.82151 101.085 3.49651C99.3642 4.17152 97.7852 5.18402 96.3472 6.53318C94.919 7.89078 93.8454 9.37916 93.1309 11C92.4163 12.6192 92.0591 14.3742 92.0591 16.2659C92.0591 18.161 92.4172 19.916 93.1309 21.5309C93.8454 23.1475 94.9181 24.6292 96.3472 25.975C97.7727 27.303 99.3454 28.2995 101.065 28.9644C102.788 29.6309 104.661 29.9668 106.683 29.9718V29.9701C108.7 29.9701 110.568 29.6377 112.286 28.9737C114.006 28.3088 115.581 27.3089 117.013 25.9741C118.451 24.6342 119.528 23.156 120.246 21.5393C120.962 19.9236 121.32 18.166 121.32 16.265C121.32 14.3674 120.962 12.6091 120.246 10.9899C119.529 9.37073 118.451 7.88488 117.012 6.53234L117.013 6.5315C115.575 5.18233 113.996 4.16983 112.275 3.49483V3.49651Z" fill="#3D4A39"/>
<path d="M103.317 8.6316L103.348 8.70079C103.271 8.73116 103.194 8.76238 103.118 8.79444C101.176 10.4187 99.7224 12.6015 98.7996 14.9133C98.5033 15.6558 98.2645 16.3621 98.0769 17.0413C98.155 17.8555 98.3534 18.6225 98.6712 19.3414C99.0931 20.2956 99.7277 21.1715 100.573 21.9671V21.968C101.412 22.7594 102.34 23.3509 103.355 23.7441C104.37 24.1364 105.479 24.3322 106.682 24.3322C107.629 24.3322 108.521 24.2064 109.36 23.9542C105.081 22.0203 101.746 19.9733 101.644 15.9512C102.917 18.3525 103.651 19.6755 106.391 20.9681C106.609 20.6593 106.842 20.2881 107.075 19.9978C108.251 18.5246 108.498 19.0916 111.136 18.5465C113.353 18.0884 113.857 17.1611 114.015 14.8273C112 13.2031 112.58 14.3244 111.338 11.6792C110.575 10.055 109.933 9.9217 107.907 9.51416L108.114 6.30284C106.289 6.70953 104.686 7.53387 103.317 8.63244L103.317 8.6316Z" fill="#DDD5C1"/>
<path d="M110.22 24.3364C109.125 24.7599 107.946 24.9709 106.683 24.9709C105.395 24.9709 104.2 24.7583 103.098 24.333C101.998 23.9078 100.997 23.2699 100.094 22.4185L100.093 22.4194C99.1847 21.5655 98.5015 20.6213 98.0446 19.5869C97.9136 19.2907 97.8014 18.9878 97.708 18.6782C97.1748 21.7823 97.682 24.4208 98.3983 27.5933C99.2439 28.1476 100.133 28.6058 101.064 28.9661C102.787 29.6326 104.66 29.9684 106.682 29.9735V29.9727C108.699 29.9727 110.567 29.6402 112.285 28.9762C113.589 28.4716 114.811 27.7747 115.95 26.8845C114.013 25.9446 112.047 25.1396 110.219 24.3372L110.22 24.3364Z" fill="#AE7B3C"/>
<path d="M75.3491 1.89844C79.4442 1.89844 82.972 3.26532 85.937 6.00584L81.7108 9.97823C79.9191 8.31772 77.8087 7.48409 75.3868 7.48409C72.9083 7.48409 70.7979 8.31772 69.0565 9.97823C67.3025 11.6269 66.4219 13.6165 66.4219 15.9461C66.4219 18.2698 67.3025 20.2594 69.0565 21.9081C70.7854 23.5568 72.8958 24.3845 75.3868 24.3845C77.2162 24.3845 78.8769 23.9035 80.3751 22.9408C81.7548 22.0608 82.7853 20.9226 83.472 19.5371H75.0564V14.2265H90.2018C90.5887 18.9558 89.1596 22.8413 85.9002 25.8805C82.9594 28.621 79.4388 29.9879 75.3311 29.9879C71.1857 29.9879 67.6651 28.621 64.7746 25.8805C61.8528 23.1518 60.386 19.8426 60.386 15.9461C60.386 12.0792 61.8528 8.76322 64.7746 5.98812C67.6777 3.22989 71.1983 1.84529 75.3311 1.84529L75.35 1.89844H75.3491Z" fill="#3D4A39"/>
<path d="M75.5933 1.58119C77.5914 1.60735 79.4595 1.95666 81.1956 2.63082C83.0016 3.33114 84.6605 4.38077 86.1749 5.77971L86.419 6.00499L81.7135 10.428L81.4738 10.206C80.6094 9.40532 79.6686 8.80372 78.6534 8.40294C77.6417 8.00385 76.5529 7.80388 75.3868 7.80388C74.1929 7.80388 73.0897 8.00385 72.0771 8.40294C71.0628 8.80288 70.1364 9.40279 69.298 10.2018L69.2971 10.2044C68.4506 11 67.8159 11.8758 67.394 12.831C66.973 13.7852 66.7621 14.8239 66.7621 15.9461C66.7621 17.0666 66.973 18.1036 67.3949 19.057C67.8168 20.0113 68.4515 20.8871 69.2971 21.6819L69.298 21.6845C70.1301 22.4784 71.0538 23.0741 72.0672 23.4707C73.0789 23.8664 74.1857 24.0647 75.3868 24.0647C76.2692 24.0647 77.1085 23.9491 77.9056 23.7188C78.7036 23.4876 79.4631 23.1408 80.1839 22.6776H80.1848C80.8464 22.2557 81.4253 21.7705 81.9218 21.2255C82.3033 20.8061 82.6363 20.3497 82.9209 19.8569H74.7162V13.9076H90.516L90.5402 14.2029C90.7368 16.6093 90.4702 18.8056 89.7377 20.7909C89.0034 22.7805 87.805 24.5524 86.139 26.1066C84.6372 27.5064 82.9846 28.556 81.1821 29.2563C79.3778 29.9575 77.4281 30.3076 75.3311 30.3076C73.2145 30.3076 71.254 29.9575 69.4515 29.2555C67.6499 28.5543 66.0107 27.5047 64.535 26.1057C63.0422 24.711 61.921 23.1678 61.1714 21.4735C60.4219 19.7784 60.0458 17.9357 60.0458 15.9461C60.0458 13.9709 60.4219 12.1349 61.1714 10.4355C61.9201 8.73876 63.0413 7.18203 64.5341 5.76368C66.0179 4.35377 67.6615 3.29401 69.464 2.58695C71.2656 1.87988 73.2216 1.52551 75.3311 1.52551H75.5744L75.5933 1.58035V1.58119ZM80.9388 3.21892C79.2171 2.55151 77.3545 2.21738 75.35 2.21738H75.1067L75.0888 2.16591C73.1606 2.19207 71.3725 2.52873 69.7243 3.17589C68.0053 3.85089 66.4353 4.86339 65.0143 6.21256C63.5853 7.57016 62.5125 9.05854 61.7971 10.6802C61.0826 12.2994 60.7253 14.0544 60.7253 15.9461C60.7253 17.853 61.0835 19.6139 61.7971 21.2288C62.5116 22.8455 63.5844 24.3204 65.0125 25.6552L65.0134 25.656C66.4263 26.9959 67.9919 27.9991 69.7073 28.6665C71.4245 29.3348 73.2997 29.6689 75.3302 29.6689C77.341 29.6689 79.2054 29.3356 80.9245 28.6674C82.6435 27.9991 84.2225 26.9951 85.6614 25.6543C87.2539 24.1685 88.3993 22.4784 89.0986 20.5834C89.7691 18.7651 90.0312 16.7519 89.8849 14.5455H75.3958V19.2173H84.0043L83.779 19.6713C83.4226 20.3902 82.9756 21.0466 82.4361 21.6389C81.9029 22.2253 81.279 22.7468 80.5654 23.2032V23.2041C79.7889 23.7027 78.9685 24.0774 78.104 24.3279C77.2387 24.5785 76.3329 24.7034 75.3868 24.7034C74.0978 24.7034 72.9048 24.4883 71.8078 24.0596C70.7109 23.631 69.7145 22.9881 68.8168 22.1333L68.8159 22.1342C67.9075 21.2803 67.2244 20.3362 66.7675 19.3017C66.3105 18.2681 66.0816 17.1493 66.0816 15.9461C66.0816 14.7404 66.3105 13.6207 66.7675 12.5863C67.2244 11.551 67.9075 10.6068 68.8159 9.75295L68.8168 9.75379C69.7199 8.89316 70.719 8.246 71.8141 7.81485C72.911 7.382 74.1022 7.166 75.3868 7.166C76.6426 7.166 77.8194 7.38284 78.9155 7.81485C79.9137 8.20888 80.8446 8.78179 81.7045 9.53357L85.4532 6.01006C84.069 4.77986 82.5645 3.85005 80.9379 3.21892H80.9388Z" fill="#3D4A39"/>
<path d="M51.8825 17.3906V2.00391H57.825V30.3532L40.045 14.4324V29.8191H34.1205V1.48754L51.8825 17.3906Z" fill="#3D4A39"/>
<path d="M51.2029 15.9022V1.36519H58.5045V31.8407L40.7245 15.9208V30.4578H33.4409V-1.90735e-06L51.202 15.9022H51.2029ZM52.562 2.64263V18.8781L34.8009 2.97592V29.1804H39.3664V12.9449L57.1463 28.8648V2.64263H52.562V2.64263Z" fill="#3D4A39"/>
<path d="M24.5379 2.06888H30.4625V29.7837H24.5379V2.06888Z" fill="#3D4A39"/>
<path d="M24.5379 1.7491H30.8018V30.1026H24.1977V1.7491H24.537H24.5379ZM30.1232 2.38782H24.8782V29.4639H30.1232V2.38782V2.38782Z" fill="#3D4A39"/>
<path d="M10.5291 15.2542C11.6027 15.2542 12.5201 14.8728 13.2885 14.1042C14.0443 13.3355 14.4249 12.4201 14.4249 11.3519C14.4249 10.3427 14.0317 9.45679 13.2508 8.68813C12.4456 7.95491 11.2283 7.59125 9.5928 7.59125H6.26518V15.2373H8.54972V15.2551H10.5291V15.2542ZM0.340622 2.06888H9.96085C13.082 2.06888 15.6547 3.00798 17.6771 4.89124C18.6699 5.81852 19.3692 6.69265 19.7812 7.52038C20.2803 8.52951 20.5308 9.75042 20.5308 11.1823V11.9037C20.5308 13.7701 19.9123 15.5301 18.6708 17.1847C17.7777 18.3525 16.5981 19.203 15.1377 19.743L21.9985 29.7837H14.757L6.28493 17.5256V29.7837H0.34152V2.06888H0.340622Z" fill="#3D4A39"/>
<path d="M10.5291 14.9353C11.0192 14.9353 11.4716 14.8492 11.8863 14.6763C12.3028 14.5024 12.687 14.24 13.0389 13.889C13.3881 13.533 13.6502 13.1457 13.8235 12.7263C13.9967 12.3061 14.0847 11.8488 14.0847 11.3527C14.0847 10.8895 13.9949 10.4566 13.8172 10.0525C13.6376 9.64664 13.3684 9.2661 13.0093 8.91173C12.6457 8.58182 12.1861 8.33375 11.6305 8.16754C11.0569 7.99541 10.3782 7.91019 9.59189 7.91019H6.60448V14.9176H8.88903V14.9353H10.5282H10.5291ZM12.1601 15.2593C11.6565 15.4694 11.1134 15.5732 10.5291 15.5732H8.2104V15.5554H5.92585V7.27062H9.59279C10.4429 7.27062 11.1897 7.36681 11.8351 7.56088C12.4958 7.75916 13.0461 8.05785 13.4868 8.45947L13.4958 8.46791C13.915 8.88051 14.231 9.32685 14.4429 9.80695C14.6565 10.2904 14.7633 10.8051 14.7633 11.3519C14.7633 11.9239 14.6601 12.458 14.4545 12.955C14.249 13.452 13.9429 13.9067 13.5371 14.3202L13.5344 14.3227C13.1188 14.7387 12.661 15.0509 12.1592 15.2593H12.1601ZM0.34061 1.7491H9.96083C11.5623 1.7491 13.0263 1.99126 14.3531 2.47642C15.6834 2.96242 16.871 3.69226 17.9159 4.66511C18.4222 5.13846 18.8557 5.59999 19.2175 6.05224C19.582 6.50787 19.8719 6.95169 20.0873 7.38537L20.0882 7.38622C20.3495 7.91441 20.5451 8.4966 20.6753 9.13194C20.8046 9.76392 20.8692 10.4474 20.8692 11.1814V11.9028C20.8692 12.8698 20.7085 13.8097 20.3881 14.7227C20.0676 15.6322 19.5873 16.5139 18.9473 17.3678L18.9446 17.3704C18.4796 17.9787 17.9401 18.5044 17.3261 18.949C16.8145 19.3194 16.2516 19.6333 15.6394 19.8898L22.6178 30.1026H14.5721L6.62333 18.6005V30.1026H0.000396729V1.7491H0.339712H0.34061ZM9.96083 2.38782H0.679925V29.4639H5.9438V16.449L14.9384 29.4639H21.3764L14.6278 19.5886L15.0129 19.446C15.7148 19.1861 16.3486 18.8528 16.9123 18.4453C17.4734 18.0386 17.968 17.5577 18.3935 17.0016H18.3926C18.994 16.2009 19.4437 15.3749 19.7435 14.5235C20.0416 13.6764 20.1906 12.8023 20.1906 11.9037V11.1823C20.1906 10.4845 20.1304 9.84154 20.0101 9.2526C19.8907 8.66788 19.7112 8.13463 19.4733 7.65369H19.4742C19.2785 7.2605 19.0128 6.85381 18.6771 6.43446C18.3378 6.01006 17.9249 5.5713 17.4392 5.11736C16.4617 4.20695 15.3513 3.52436 14.1098 3.07042C12.8648 2.61563 11.4824 2.38782 9.96173 2.38782H9.96083Z" fill="#3D4A39"/>
<path d="M6.34058 48.3108C6.96446 48.3108 7.521 48.2121 8.01113 48.0146C8.50125 47.8172 8.91866 47.5405 9.25798 47.1852C9.59819 46.83 9.85672 46.4048 10.0354 45.9112C10.214 45.4176 10.302 44.8742 10.302 44.281V35.6773H12.3298V44.281C12.3298 45.0978 12.1933 45.8546 11.9168 46.5533C11.6404 47.2511 11.2445 47.8535 10.7292 48.364C10.214 48.8744 9.58383 49.2761 8.84146 49.5655C8.0991 49.8549 7.26517 50 6.34058 50C5.41599 50 4.58207 49.8549 3.8397 49.5655C3.09734 49.2761 2.46628 48.8744 1.94833 48.364C1.42948 47.8535 1.03451 47.2511 0.757136 46.5533C0.480657 45.8555 0.340622 45.0978 0.340622 44.281V35.6773H2.36844V44.2709C2.36844 44.8632 2.4591 45.4066 2.63773 45.901C2.81637 46.3946 3.07579 46.8199 3.41511 47.1751C3.75532 47.5303 4.17184 47.8071 4.66555 48.0079C5.15926 48.2087 5.71671 48.3108 6.33968 48.3108H6.34058Z" fill="#AE7B3C"/>
<path d="M23.397 41.8797H24.1645C24.4311 41.8797 24.6448 41.8468 24.8054 41.7844C24.9661 41.7219 25.1133 41.6165 25.2471 41.4646L30.2596 36.1304C30.3997 35.9591 30.5469 35.841 30.7013 35.7752C30.8557 35.7093 31.0442 35.6764 31.2686 35.6764H32.9921L27.2543 41.7709C27.1142 41.9286 26.9814 42.0569 26.8512 42.159C26.722 42.2611 26.5819 42.3463 26.4347 42.4121C26.6241 42.4712 26.7956 42.5572 26.95 42.672C27.1044 42.7876 27.2543 42.9386 27.4015 43.1234L33.3916 49.8304H31.6259C31.493 49.8304 31.3808 49.8203 31.2857 49.8042C31.1914 49.7874 31.107 49.7612 31.037 49.7249C30.967 49.6886 30.9077 49.6456 30.8548 49.5967C30.8018 49.5469 30.7498 49.4912 30.7004 49.4254L25.5092 43.8052C25.3692 43.6406 25.2184 43.5217 25.0577 43.4525C24.897 43.3833 24.6511 43.3504 24.3225 43.3504H23.3979V49.8304H21.3701V35.6756H23.3979V41.8789L23.397 41.8797Z" fill="#AE7B3C"/>
<path d="M44.8457 42.5319C45.4346 42.5319 45.9561 42.4627 46.4076 42.3277C46.8592 42.1927 47.238 42.0021 47.5423 41.7548C47.8466 41.5076 48.0746 41.2148 48.229 40.8723C48.3834 40.5297 48.4606 40.1509 48.4606 39.7366C48.4606 38.8937 48.1662 38.2583 47.5782 37.8305C46.9893 37.4028 46.1069 37.1884 44.9301 37.1884H42.7021V42.5328H44.8457V42.5319ZM51.8026 49.8321H49.9947C49.6231 49.8321 49.3502 49.6971 49.1751 49.4271L45.2658 44.3696C45.1464 44.2118 45.0208 44.0962 44.8843 44.0271C44.7479 43.9579 44.5342 43.925 44.247 43.925H42.7021V49.8321H40.6743V35.6773H44.9301C45.8825 35.6773 46.7066 35.7659 47.3996 35.9473C48.0934 36.1287 48.6679 36.3919 49.1195 36.7345C49.571 37.0771 49.904 37.4888 50.1213 37.9723C50.3385 38.4566 50.4471 39 50.4471 39.599C50.4471 40.0994 50.3627 40.5668 50.1949 41.0014C50.027 41.4359 49.7846 41.8249 49.466 42.17C49.1473 42.5159 48.7586 42.8121 48.2999 43.0559C47.8412 43.2997 47.3188 43.4837 46.7371 43.6094C46.9965 43.7478 47.2209 43.9486 47.4094 44.2118L51.8026 49.8321V49.8321Z" fill="#AE7B3C"/>
<path d="M66.5143 44.5763L64.1499 38.8177C64.0799 38.6464 64.0063 38.4456 63.9291 38.2187C63.8519 37.9917 63.7783 37.7512 63.7082 37.4939C63.561 38.0271 63.4102 38.4718 63.2567 38.827L60.8923 44.5755H66.5143V44.5763ZM70.7603 49.8312H69.184C69.0018 49.8312 68.8545 49.7882 68.7423 49.703C68.6301 49.6178 68.5457 49.5089 68.4901 49.3773L67.0817 45.9593H60.3241L58.9156 49.3773C58.8734 49.4954 58.7927 49.6009 58.6742 49.6937C58.5548 49.7857 58.4076 49.8321 58.2325 49.8321H56.6562L62.6777 35.6773H64.7379L70.7594 49.8321L70.7603 49.8312Z" fill="#AE7B3C"/>
<path d="M79.4613 49.8321H77.4227V35.6764H79.4613V49.8321Z" fill="#AE7B3C"/>
<path d="M100.889 35.6764V49.8312H99.8696C99.708 49.8312 99.5752 49.8051 99.4665 49.7519C99.3579 49.6996 99.2493 49.6102 99.1443 49.4853L90.4325 38.8169C90.4468 38.9814 90.4567 39.1426 90.4639 39.3012C90.4711 39.459 90.4747 39.6075 90.4747 39.7459V49.8312H88.6883V35.6764H89.7395C89.8302 35.6764 89.9074 35.6798 89.9711 35.6899C90.0339 35.7001 90.0905 35.7161 90.1389 35.7397C90.1883 35.7625 90.2368 35.7954 90.2862 35.8384C90.3355 35.8815 90.3876 35.9372 90.4441 36.003L99.1559 46.6613C99.1416 46.49 99.1317 46.3221 99.1209 46.1609C99.1102 45.9998 99.103 45.8479 99.103 45.7036V35.6773H100.889V35.6764Z" fill="#AE7B3C"/>
<path d="M117.41 44.5763L115.045 38.8177C114.975 38.6464 114.902 38.4456 114.825 38.2187C114.747 37.9917 114.674 37.7512 114.604 37.4939C114.457 38.0271 114.306 38.4718 114.152 38.827L111.788 44.5755H117.41V44.5763ZM121.656 49.8312H120.079C119.897 49.8312 119.75 49.7882 119.638 49.703C119.526 49.6178 119.441 49.5089 119.386 49.3773L117.977 45.9593H111.22L109.811 49.3773C109.769 49.4954 109.688 49.6009 109.57 49.6937C109.45 49.7857 109.303 49.8321 109.128 49.8321H107.552L113.573 35.6773H115.633L121.655 49.8321L121.656 49.8312Z" fill="#AE7B3C"/>
</g>
<defs>
<clipPath id="clip0_212_513">
<rect width="122" height="50" fill="white"/>
</clipPath>
</defs>
</svg>
