<?xml version="1.0" encoding="utf-8"?><svg viewBox="0 0 242 484" xmlns="http://www.w3.org/2000/svg" xmlns:xlink="http://www.w3.org/1999/xlink"><style>:root>svg{display:none}:root>svg:target{display:block}</style><svg viewBox="0 0 21 16" id="arrow" xmlns="http://www.w3.org/2000/svg"><path d="M20.707 8.707a1 1 0 000-1.414L14.343.929a1 1 0 10-1.414 1.414L18.586 8l-5.657 5.657a1 1 0 001.414 1.414l6.364-6.364zM0 9h20V7H0v2z"/></svg><svg viewBox="0 0 21 16" id="arrow-green" xmlns="http://www.w3.org/2000/svg"><path d="M20.707 8.707a1 1 0 000-1.414L14.343.929a1 1 0 10-1.414 1.414L18.586 8l-5.657 5.657a1 1 0 001.414 1.414l6.364-6.364zM0 9h20V7H0v2z"/></svg><svg fill="none" viewBox="0 0 66 66" id="brainstorm" xmlns="http://www.w3.org/2000/svg"><g clip-path="url(#ca)"><path d="M52.45 11.674A11.465 11.465 0 0041.6 0a9.92 9.92 0 00-5.548 1.691A14.404 14.404 0 0029.308 0a15.91 15.91 0 00-14.726 11.344 11.78 11.78 0 00-8.395 11.694 11.502 11.502 0 0010.849 12.024h6.25l-7.343 13.345a.773.773 0 00-.103.371.352.352 0 00-.02.145l-.847 8.456v.082l-.7 6.992a1.003 1.003 0 00.536.99 1.077 1.077 0 001.134-.082l5.569-4.352 6.682-5.239a.804.804 0 00.392-.392l11.2-20.316h9.178a11.503 11.503 0 0010.848-12.024 11.977 11.977 0 00-7.363-11.364zM25.656 35.063h4.703L21.862 50.49l-3.61-1.98 7.405-13.447zm-9.095 27.183l.35-3.597a5.492 5.492 0 012.488 1.376l-2.838 2.221zm4.475-3.506l-.02.017a7.526 7.526 0 00-3.898-2.154v-.029l.598-6.022 4 2.227c.021 0 .021.021.042.021.02 0 .02.02.041.02l4.002 2.208-4.765 3.712zm6.25-5.26h-.021l-3.589-2 9.034-16.417h4.703L27.286 53.48zM48.964 33H17.036a9.444 9.444 0 01-8.786-9.962 9.671 9.671 0 017.177-9.776h.042a8.157 8.157 0 017.528 8.6 1.031 1.031 0 002.062 0 10.37 10.37 0 00-8.27-10.539 13.74 13.74 0 0112.519-9.26 12.209 12.209 0 016.167 1.67c.02.02.041.02.062.041a8.856 8.856 0 013.691 5.982c.021.103.021.185.042.288a1.032 1.032 0 001.01.908h.124a1.054 1.054 0 00.908-1.155.124.124 0 00-.021-.083 10.768 10.768 0 00-3.424-6.703 7.904 7.904 0 013.733-.949 9.348 9.348 0 018.745 9.405 8.25 8.25 0 00-3.361 1.135 8.335 8.335 0 00-1.774 1.3 10.647 10.647 0 00-2.145 2.845 1.005 1.005 0 00.454 1.382.94.94 0 00.453.124 1.03 1.03 0 00.928-.557 7.962 7.962 0 011.815-2.351 6.34 6.34 0 011.712-1.176 6.542 6.542 0 012.785-.7c.02-.021.02-.021.04 0a9.766 9.766 0 016.498 9.57A9.444 9.444 0 0148.964 33zm-1.135-11.22a1.031 1.031 0 00-.185-1.01.898.898 0 00-.454-.31 1.064 1.064 0 00-1.32.66 9.32 9.32 0 00-.454 3.65.02.02 0 01-.006.015.02.02 0 01-.015.006c-.02.041-.02.062-.04.083l.061-.041a8.16 8.16 0 00.97 3.465 1.031 1.031 0 00.907.556.957.957 0 00.474-.123 1.01 1.01 0 00.433-1.382 7.132 7.132 0 01-.37-5.569zm-26.771 4.249a7.012 7.012 0 01-5.548-.557 1.03 1.03 0 10-.97 1.815 9.28 9.28 0 004.435 1.134c.924 0 1.843-.145 2.722-.433a1.015 1.015 0 00.66-1.3 1.031 1.031 0 00-1.3-.66zm17.717-1.98a9.016 9.016 0 00-1.63-1.3 10.725 10.725 0 00-1.938-.99 9.347 9.347 0 00-1.94-.536 5.126 5.126 0 00-1.113-.124.998.998 0 00-.99.021h-.02a.227.227 0 00-.165 0 8.615 8.615 0 00-3.3.928 1.032 1.032 0 00.928 1.836c.34-.183.7-.329 1.072-.433h.02a6.807 6.807 0 012.496-.29 7.44 7.44 0 012.27.516c.595.23 1.163.527 1.69.887.58.392 1.113.848 1.588 1.362a9.443 9.443 0 011.506 2.165 1.032 1.032 0 00.928.578 1.084 1.084 0 00.788-.373 1.018 1.018 0 00.12-1.133 10.928 10.928 0 00-2.31-3.114zm-6.6-15.221a1.031 1.031 0 00-.949-1.815 7.13 7.13 0 01-5.569.37 1.031 1.031 0 00-1.32.64 1.073 1.073 0 00.66 1.32 9.843 9.843 0 003.053.495 8.716 8.716 0 004.125-1.01z" fill="#fff"/></g><defs><clipPath id="ca"><path fill="#fff" d="M0 0h66v66H0z"/></clipPath></defs></svg><svg fill="none" viewBox="0 0 5 5" id="checkbox" xmlns="http://www.w3.org/2000/svg"><path fill="#fff" d="M0 0h5v5H0z"/></svg><svg viewBox="0 0 35 35" id="close" xmlns="http://www.w3.org/2000/svg"><path d="M29.166 5.833L5.833 29.168m23.333 0L5.833 5.833l23.333 23.334z" stroke="#fff" stroke-width="2" stroke-linecap="round"/></svg><svg fill="none" viewBox="0 0 68 68" id="doors" xmlns="http://www.w3.org/2000/svg"><path d="M50.522 4.6L31.397 9.053v54.411l19.125-4.462V4.6z" stroke="#fff" stroke-width="3" stroke-linecap="round" stroke-linejoin="round"/><path d="M50.522 4.6v-.052H17.478v54.4h13.919m6.641-23.312v-5.822" stroke="#fff" stroke-width="3" stroke-linecap="round" stroke-linejoin="round"/></svg><svg fill="none" viewBox="0 0 18 18" id="dot" xmlns="http://www.w3.org/2000/svg"><circle cx="9" cy="9" r="3" fill="#AE7B3C"/><circle cx="9" cy="9" r="8.5" stroke="#AE7B3C"/></svg><svg fill="none" viewBox="0 0 242 484" id="ellipse" xmlns="http://www.w3.org/2000/svg"><path opacity=".1" d="M242 1C108.899 1 1 108.899 1 242s107.899 241 241 241" stroke="#282B22"/></svg><svg viewBox="0 0 10 21" id="facebook" xmlns="http://www.w3.org/2000/svg"><g clip-path="url(#ia)"><path d="M2.553 20.575V10.92H0V7.444h2.553V4.475C2.553 2.142 4.06 0 7.535 0c1.407 0 2.447.135 2.447.135L9.9 3.38s-1.06-.01-2.218-.01c-1.253 0-1.454.577-1.454 1.535v2.538H10l-.164 3.476H6.228v9.655H2.553z"/></g><defs><clipPath id="ia"><path d="M0 0h10v20.575H0z"/></clipPath></defs></svg><svg viewBox="0 0 16 18" id="file" xmlns="http://www.w3.org/2000/svg"><path d="M15.031 4.781a2.1 2.1 0 01.281.362h-4.74V.402c.147.094.267.187.361.281l4.098 4.098zM10.25 6.43h5.464v10.607a.93.93 0 01-.281.683.93.93 0 01-.683.281H1.25a.93.93 0 01-.683-.281.93.93 0 01-.281-.683V.964A.93.93 0 01.567.281.93.93 0 011.25 0h8.036v5.464a.93.93 0 00.281.683.93.93 0 00.683.282zm1.607 7.392v-.642a.317.317 0 00-.09-.232.313.313 0 00-.231-.09H4.464c-.093 0-.17.03-.23.09a.313.313 0 00-.091.232v.642c0 .094.03.171.09.232.06.06.138.09.231.09h7.072a.31.31 0 00.321-.322zm0-2.571v-.643a.31.31 0 00-.09-.23.312.312 0 00-.231-.091H4.464c-.093 0-.17.03-.23.09a.313.313 0 00-.091.231v.643c0 .094.03.17.09.231.06.06.138.09.231.09h7.072a.31.31 0 00.321-.321zm0-2.571v-.643a.313.313 0 00-.09-.231.313.313 0 00-.231-.09H4.464c-.093 0-.17.03-.23.09a.313.313 0 00-.091.23v.644c0 .093.03.17.09.23s.138.09.231.09h7.072a.31.31 0 00.321-.321z" fill="#fff"/></svg><svg fill="none" viewBox="0 0 66 66" id="floor" xmlns="http://www.w3.org/2000/svg"><path d="M62.674 61.11l-7.92-38.28a1.322 1.322 0 00-1.294-1.05H12.54c-.627 0-1.168.442-1.294 1.05l-7.92 38.28c-.079.389.02.791.271 1.102.25.31.627.488 1.023.488h56.76a1.323 1.323 0 001.294-1.59zm-6.878-20.19H34.32v-16.5h18.064l3.412 16.5zm-42.18-16.5H31.68v16.5H10.204l3.412-16.5zM9.682 43.435c.165.079.35.125.548.125h21.45v16.5H6.244l3.438-16.625zM34.32 60.06v-16.5h21.45c.198 0 .383-.046.548-.125l3.438 16.625H34.32zm3.3-49.5a3.3 3.3 0 013.3 3.3c0 .726.594 1.32 1.32 1.32.726 0 1.32-.594 1.32-1.32a3.3 3.3 0 013.3-3.3c.726 0 1.32-.594 1.32-1.32 0-.726-.594-1.32-1.32-1.32a3.301 3.301 0 01-3.3-3.3c0-.726-.594-1.32-1.32-1.32-.726 0-1.32.594-1.32 1.32a3.3 3.3 0 01-3.3 3.3c-.726 0-1.32.594-1.32 1.32 0 .726.594 1.32 1.32 1.32zm4.62-2.218c.264.33.568.627.898.898-.33.264-.627.568-.898.898a6.076 6.076 0 00-.898-.898c.33-.264.634-.568.898-.898zM19.14 13.2a3.3 3.3 0 013.3 3.3c0 .726.594 1.32 1.32 1.32.726 0 1.32-.594 1.32-1.32a3.3 3.3 0 013.3-3.3c.726 0 1.32-.594 1.32-1.32 0-.726-.594-1.32-1.32-1.32a3.301 3.301 0 01-3.3-3.3c0-.726-.594-1.32-1.32-1.32-.726 0-1.32.594-1.32 1.32a3.3 3.3 0 01-3.3 3.3c-.726 0-1.32.594-1.32 1.32 0 .726.594 1.32 1.32 1.32zm4.62-2.218c.264.33.568.627.898.898-.33.264-.627.568-.898.898a6.074 6.074 0 00-.898-.898c.33-.264.634-.568.898-.898z" fill="#fff"/></svg><svg fill="none" viewBox="0 0 66 66" id="furniture" xmlns="http://www.w3.org/2000/svg"><g clip-path="url(#la)"><path d="M57.725-126.892a1.03 1.03 0 01-1.031-1.031v-4.999H9.303v4.999a1.03 1.03 0 11-2.063 0v-17.919c0-3.032 2.466-5.5 5.496-5.5h40.52c3.032 0 5.5 2.468 5.5 5.5v17.919a1.03 1.03 0 01-1.03 1.031zm-48.422-8.092h47.39v-10.858a3.441 3.441 0 00-3.437-3.438h-40.52a3.439 3.439 0 00-3.432 3.438v10.858h-.001zm52.57-16.561H4.127a1.031 1.031 0 110-2.063h57.748a1.03 1.03 0 110 2.063zm-434.701 117.33a1.032 1.032 0 01-1.031-1.031v-9.552h-11.794v9.552a1.032 1.032 0 01-2.063 0V-50.35h-1.914a1.032 1.032 0 010-2.062h15.879l1.47-13.227v-6.365a1.032 1.032 0 012.062 0v6.407l-.001.075a.805.805 0 01-.006.069l-1.57 14.129v16.078a1.032 1.032 0 01-1.032 1.031zm-12.825-12.645h11.794v-3.49h-11.794v3.49zm-14.473 12.645a.9.9 0 01-.092-.004h-6.834a1.032 1.032 0 010-2.062h5.895v-23.543h-16.736a1.032 1.032 0 110-2.062h35.54a1.032 1.032 0 010 2.062h-16.742v23.543h5.898a1.032 1.032 0 010 2.062h-6.837a.9.9 0 01-.092.004zm-13.441 0c-.57 0-1.032-.462-1.032-1.031v-9.552h-11.792v9.552a1.032 1.032 0 01-2.062 0v-16.078l-1.57-14.13a.867.867 0 01-.006-.073c-.002-.022-.002-.046-.002-.07v-6.407a1.032 1.032 0 012.062 0v6.365l1.47 13.227h15.877a1.032 1.032 0 010 2.062h-1.914v15.104a1.03 1.03 0 01-1.031 1.031zm-12.824-12.645h11.792v-3.49h-11.792v3.49zm137.619 7.882a1.032 1.032 0 01-1.031-1.031v-2.838h-23.698a1.03 1.03 0 01-1.031-1.032V-63.63h-22.666v23.62a1.032 1.032 0 01-2.063 0v-23.62h-3.114a1.032 1.032 0 01-1.031-1.031v-2.58c0-.569.462-1.03 1.031-1.03h57.75a1.03 1.03 0 011.031 1.03v2.58a1.03 1.03 0 01-1.031 1.03h-3.115v23.622a1.03 1.03 0 01-1.032 1.03zm-23.698-5.932h22.667v-8.327h-22.667v8.327zm0-10.39h22.667v-8.33h-22.667v8.33zm23.698-10.393h3.116v-.516h-55.688v.516h52.572zm-11.013 17.651h-2.694a1.03 1.03 0 110-2.062h2.694a1.03 1.03 0 110 2.062zm0-10.394h-2.694a1.03 1.03 0 110-2.062h2.694a1.03 1.03 0 110 2.062zm97.638 19.458a1.032 1.032 0 01-1.031-1.031v-13.228h-47.395v13.228a1.032 1.032 0 01-2.063 0V-63.63h-3.114a1.032 1.032 0 01-1.031-1.031v-2.58c0-.569.462-1.03 1.031-1.03H-198a1.03 1.03 0 011.031 1.03v2.58a1.03 1.03 0 01-1.031 1.03h-3.115v23.622a1.03 1.03 0 01-1.032 1.03zM-225.845-55.3h22.667v-8.33h-22.667v8.33zm-24.727 0h22.666v-8.33h-22.666v8.33zm48.425-10.393h3.116v-.516h-55.688v.516h52.572zm-11.013 7.257h-2.694a1.032 1.032 0 010-2.062h2.694a1.032 1.032 0 010 2.062zm-24.732-.159h-2.696a1.032 1.032 0 010-2.062h2.696a1.032 1.032 0 010 2.062zm109.532 34.876a1.03 1.03 0 01-1.031-1.031v-3.115h-21.721v3.115a1.03 1.03 0 11-2.063 0v-19.471h-3.761a1.03 1.03 0 01-1.031-1.031c.05-1.983 1.618-3.512 3.574-3.512h1.479l.008-22.573c.272-6.855 5.83-12.194 12.654-12.194a12.621 12.621 0 0112.654 12.154l.013 22.613h1.48c1.924 0 3.528 1.563 3.574 3.482v.03a1.03 1.03 0 01-1.031 1.031h-3.764v19.471a1.034 1.034 0 01-1.034 1.031zm-22.752-6.209h21.721v-6.116h-21.721v6.116zm0-8.178h21.721v-6.115h-21.721v6.115zm22.752-8.177h3.293a1.51 1.51 0 00-1.04-.418h-28.288c-.4 0-.767.16-1.04.418h27.075zm-22.492-2.48h21.204l-.011-22.573c-.224-5.664-4.877-10.133-10.592-10.133a10.57 10.57 0 00-10.593 10.173l-.008 22.532zm11.897 16.812h-2.589a1.031 1.031 0 110-2.063h2.589a1.03 1.03 0 110 2.063zm0-8.183h-2.589a1.031 1.031 0 110-2.063h2.589a1.03 1.03 0 110 2.063zm-7.142-18.103a1.029 1.029 0 01-.729-1.76l11.695-11.695a1.03 1.03 0 111.458 1.458l-11.695 11.695a1.024 1.024 0 01-.729.302zm5.094-.722a1.032 1.032 0 01-.729-1.761l5.879-5.876a1.032 1.032 0 011.458 1.46l-5.879 5.875a1.031 1.031 0 01-.729.302zm-4.372-4.374a1.029 1.029 0 01-.729-1.76l5.874-5.877a1.03 1.03 0 111.458 1.459l-5.874 5.876a1.028 1.028 0 01-.729.302zm77.567 39.614a1.033 1.033 0 01-.946-1.44l.745-1.72h-1.639a1.03 1.03 0 01-1.03-1.03v-22.043c0-.6.54-1.073 1.122-1.027h8.646v-12.12h-8.738a1.032 1.032 0 01-1.018-1.193l2.906-18.37a1.03 1.03 0 011.019-.87h13.714c.508 0 .938.369 1.018.87l2.912 18.37a1.033 1.033 0 01-1.019 1.194h-2.301v4.904a1.031 1.031 0 11-2.063 0v-4.904h-4.368v12.12h21.154c.583-.046 1.123.426 1.123 1.027v22.042a1.03 1.03 0 01-1.032 1.031h-1.596l.746 1.719a1.03 1.03 0 11-1.892.82l-1.102-2.54h-24.314l-1.098 2.538c-.17.39-.55.622-.949.622zm27.06-5.222h2.114v-8.956h-29.982v8.956h2.154a.375.375 0 01.047 0h25.62a.36.36 0 01.047 0zM-68.616-39.96h29.982v-8.957h-29.982v8.957zm15.168-25.203h2.127l-2.586-16.306H-65.86l-2.58 16.307h14.992zm1.567 32.78h-3.493a1.031 1.031 0 110-2.063h3.493a1.03 1.03 0 110 2.063zm0-11.028h-3.493a1.031 1.031 0 110-2.063h3.493a1.03 1.03 0 110 2.063zM60.256-41.24c-.4 0-.779-.233-.947-.621l-.965-2.225H7.695l-.961 2.224a1.032 1.032 0 01-1.892-.818l.607-1.405H4.126a1.03 1.03 0 01-1.031-1.031v-19.86c0-.592.53-1.064 1.096-1.03h28.743c.022-.001.046-.007.066-.001.026-.006.044 0 .066.002h28.743c.56-.035 1.096.437 1.096 1.029v19.86c0 .57-.46 1.031-1.031 1.031h-1.282l.608 1.404a1.03 1.03 0 01-.944 1.441zm-1.213-4.907h1.8v-7.869h-26.81v7.869h24.965a.344.344 0 01.045 0zm-52.003 0h24.927v-7.869H5.157v7.869h1.838a.343.343 0 01.045 0zm26.993-9.931h26.81v-7.865h-26.81v7.865zm-28.876 0h26.81v-7.865H5.157v7.865zm43.854 7.029h-3.147a1.031 1.031 0 110-2.063h3.147a1.031 1.031 0 110 2.063zm-28.88 0h-3.146a1.031 1.031 0 110-2.063h3.147a1.031 1.031 0 11-.001 2.063zm28.88-9.931h-3.147a1.031 1.031 0 110-2.063h3.147a1.031 1.031 0 110 2.063zm-28.88 0h-3.146a1.031 1.031 0 110-2.063h3.147a1.031 1.031 0 11-.001 2.063zm-447.47 104.362a1.03 1.03 0 01-.945-1.44l.607-1.404H-429a1.03 1.03 0 01-1.031-1.031V21.648c0-.57.462-1.031 1.031-1.031h57.75c.569 0 1.031.46 1.031 1.031v19.858a1.03 1.03 0 01-1.031 1.031h-1.282l.609 1.403a1.031 1.031 0 01-1.893.82l-.965-2.224h-50.648l-.963 2.223a1.03 1.03 0 01-.947.623zm53.258-4.907h1.8V22.678h-26.81v17.796h25.01zm-52.002 0h24.926v-7.867h-26.812v7.867h1.886zm-1.886-9.93h26.812V22.68h-26.812v7.867zm14.979 7.029h-3.147a1.03 1.03 0 110-2.063h3.147a1.03 1.03 0 110 2.063zm16.078-3.395a1.03 1.03 0 01-1.031-1.032V30a1.03 1.03 0 112.063 0v3.149a1.03 1.03 0 01-1.032 1.03zm-16.078-6.54h-3.147a1.03 1.03 0 110-2.062h3.147a1.03 1.03 0 110 2.063zm125.512 21.982c-.57 0-1.032-.461-1.032-1.032v-.36h-49.939v.36a1.03 1.03 0 11-2.063 0v-.36h-1.77c-.591.065-1.123-.426-1.123-1.028v-29.79c0-.57.462-1.032 1.031-1.032h57.75a1.03 1.03 0 011.027 1.123v9.747c.002.03.004.06.004.091v19.858a1.03 1.03 0 01-1.031 1.032h-1.822v.36a1.032 1.032 0 01-1.032 1.03zm-24.988-3.454h26.81V38.3h-26.81v7.867zm-28.878 0h26.812V38.3h-26.812v7.867zm28.878-9.93h26.81v-8.805a1.379 1.379 0 01-.004-.091v-8.9h-26.806v17.796zm-28.878 0h26.816V18.442h-26.816v17.795zm43.857 7.031h-3.147a1.03 1.03 0 110-2.062h3.147a1.03 1.03 0 110 2.062zm-28.878 0h-3.147a1.03 1.03 0 110-2.062h3.147a1.03 1.03 0 110 2.062zm38.685-13.328a1.03 1.03 0 01-1.031-1.03v-3.145a1.03 1.03 0 112.063 0v3.144c0 .57-.462 1.031-1.032 1.031zm-51.659 0a1.03 1.03 0 01-1.031-1.03v-3.145a1.03 1.03 0 112.062 0v3.144a1.03 1.03 0 01-1.031 1.031zm138.485 24.998a1.03 1.03 0 01-1.031-1.032v-.365h-49.939v.366a1.03 1.03 0 11-2.063 0v-.366h-1.77c-.588.067-1.123-.426-1.123-1.028V42.58c0-.57.462-1.03 1.031-1.03h4.215v-2.646h-4.216a1.03 1.03 0 110-2.063h24.688l.695-2.256h-15.022a1.03 1.03 0 01-1.031-1.031v-21.46c0-.57.462-1.032 1.031-1.032h37.028a1.03 1.03 0 011.031 1.032v21.46a1.03 1.03 0 01-1.031 1.032h-15.024l.695 2.257H-198a1.03 1.03 0 110 2.062h-4.214v2.645H-198a1.03 1.03 0 011.031 1.031v9.93A1.03 1.03 0 01-198 53.54h-1.822v.367a1.03 1.03 0 01-1.032 1.03zm-24.991-3.46h26.814v-7.866h-26.814v7.866zm-28.874 0h26.812v-7.866h-26.812v7.866zm5.246-9.929h45.197v-2.645h-19.152a.334.334 0 01-.047 0h-6.8a.335.335 0 01-.047 0h-19.15v2.645h-.001zm20.57-4.708h4.054l-.695-2.256h-2.664l-.695 2.256zm4.145-4.318h15.366V13.125h-34.966v19.399h15.364a.368.368 0 00.047 0h4.142l.047-.001zm13.896 16.057h-3.147a1.03 1.03 0 110-2.062h3.147a1.03 1.03 0 110 2.062zm-28.878 0h-3.147a1.03 1.03 0 110-2.062h3.147a1.03 1.03 0 110 2.062zm109.116-1.832a1.03 1.03 0 01-1.032-1.032V43.61h-17.194v2.107a1.03 1.03 0 11-2.062 0V43.61h-17.181v2.083a1.03 1.03 0 11-2.062 0V20.284c0-.57.461-1.032 1.031-1.032h57.748c.57 0 1.031.461 1.031 1.032v25.404a1.03 1.03 0 11-2.062 0v-2.079h-17.186v2.107a1.03 1.03 0 01-1.031 1.032zm1.031-5.201h17.186V27.572h-17.186v13.975zm-19.257 0h17.194V24.479h-17.194v17.068zm-19.243 0h17.181V27.572h-17.181v13.975zm38.5-16.038h17.186v-4.194h-17.186v4.194zm-38.5 0h17.181v-4.194h-17.181v4.194zm19.243-3.093h17.194v-1.101h-17.194v1.101zm20.534 14.19a1.03 1.03 0 01-1.032-1.03v-2.032a1.03 1.03 0 112.063 0v2.031a1.03 1.03 0 01-1.031 1.031zm-23.872 0a1.03 1.03 0 01-1.031-1.03v-2.032a1.03 1.03 0 112.062 0v2.031c0 .57-.46 1.031-1.031 1.031zm32.239-12.392h-2.097a1.03 1.03 0 110-2.063h2.097a1.03 1.03 0 110 2.063zm-38.504 0h-2.093a1.03 1.03 0 110-2.063h2.093a1.03 1.03 0 110 2.063zm118.819 38.691h-27.987a1.03 1.03 0 01-1.031-1.031V4.126c0-.57.46-1.031 1.03-1.031h27.992a1.03 1.03 0 011.027 1.123v19.07a.897.897 0 010 .183v19.066a.897.897 0 010 .184v19.153a1.03 1.03 0 01-1.031 1.031zm-26.955-2.062h25.925V43.66H-66.59v17.183zm0-19.25h25.925V24.411H-66.59v17.182zm0-19.253h25.925V5.157H-66.59V22.34zm1.91 32.47a1.03 1.03 0 01-1.031-1.031v-3.05a1.03 1.03 0 112.062 0v3.05c0 .57-.46 1.03-1.031 1.03zm0-19.254a1.03 1.03 0 01-1.031-1.03v-3.047a1.03 1.03 0 112.062 0v3.046c0 .57-.46 1.032-1.031 1.032zm0-19.252a1.03 1.03 0 01-1.031-1.031v-3.046a1.03 1.03 0 112.062 0v3.046c0 .57-.46 1.031-1.031 1.031zM60.989 62.905H5.011a1.03 1.03 0 01-1.031-1.031V4.126c0-.57.46-1.031 1.03-1.031h55.978c.57 0 1.031.46 1.031 1.031v57.748a1.03 1.03 0 01-1.03 1.031zm-26.956-2.062h25.925V5.157H34.033v55.686zm-27.991 0h25.925V43.656H6.042v17.187zm0-19.25h25.925V5.157H6.042v36.436zm23.7 13.217a1.03 1.03 0 01-1.032-1.031v-3.05a1.03 1.03 0 112.062 0v3.05c0 .57-.46 1.03-1.03 1.03zm6.517-19.254a1.03 1.03 0 01-1.032-1.03v-3.047a1.03 1.03 0 112.063 0v3.046c0 .57-.461 1.032-1.031 1.032zm-6.518 0a1.03 1.03 0 01-1.031-1.03v-3.047a1.03 1.03 0 112.062 0v3.046c0 .57-.46 1.032-1.03 1.032zM-372.135 149.53h-55.98a1.03 1.03 0 01-1.031-1.031V90.751c0-.57.462-1.031 1.031-1.031h55.979a1.03 1.03 0 011.031 1.031V148.5a1.03 1.03 0 01-1.03 1.031zm-26.956-2.062h25.925V91.782h-25.925v55.686zm-27.993 0h25.927V91.782h-25.927v55.686zm40.953-7.636c-4.833 0-8.766-3.932-8.766-8.764v-22.884c0-4.833 3.933-8.765 8.766-8.765 4.835 0 8.77 3.932 8.77 8.765l-.004 22.884c0 4.832-3.932 8.764-8.766 8.764zm0-38.352a6.71 6.71 0 00-6.703 6.703v22.884a6.71 6.71 0 006.703 6.702 6.71 6.71 0 006.703-6.702l.004-22.884c0-3.696-3.009-6.703-6.707-6.703zm-10.734 20.701a1.03 1.03 0 01-1.031-1.031v-3.046a1.03 1.03 0 112.062 0v3.046a1.03 1.03 0 01-1.031 1.031zm-6.518 0a1.03 1.03 0 01-1.031-1.031v-3.046a1.03 1.03 0 112.063 0v3.046a1.03 1.03 0 01-1.032 1.031zm206.41-17.674a1.03 1.03 0 10-2.062 0v11.285h-.071c-.098-2.266-1.957-4.081-4.247-4.081h-4.725c-2.289 0-4.147 1.815-4.244 4.081h-37.989a6.45 6.45 0 00-4.405 1.734v-4.854a1.03 1.03 0 10-2.062 0l-.003 20.569c0 .551.432 1.001.975 1.031v.471a1.03 1.03 0 102.063 0v-.471h53.733v.471a1.03 1.03 0 102.063 0v-.471c.544-.028.977-.48.977-1.031l-.003-28.734zm-11.105 9.267h4.725c1.15 0 2.096.884 2.194 2.005h-9.11a2.202 2.202 0 012.191-2.005zm-42.234 4.08h51.277v3.374h-55.562a4.414 4.414 0 014.285-3.374zm-4.407 14.355v-8.918h55.686l.002 8.918h-55.688zm144.37-6.265c0-.571-.462-1.032-1.031-1.032h-22.684v-9.529a1.03 1.03 0 00-1.031-1.031h-10.313a1.03 1.03 0 00-1.032 1.031v9.529h-4.724c.581-1.827-1.176-9.551-.63-11.016a1.03 1.03 0 00-.965-1.392h-1.39v-3.521h5.501a1.03 1.03 0 001.02-1.183l-1.947-13.163a1.03 1.03 0 00-1.02-.88h-9.172a1.03 1.03 0 00-1.02.88l-1.943 13.163a1.03 1.03 0 001.02 1.183h5.497v3.521h-1.39c-.338 0-.655.165-.847.444a1.027 1.027 0 00-.118.948c.546 1.466-1.208 9.189-.628 11.016h-9.928a1.03 1.03 0 00-1.031 1.032v17.014c0 .55.431 1 .973 1.029v.474a1.03 1.03 0 102.063 0v-.472h53.733v.472a1.03 1.03 0 102.063 0v-.473a1.03 1.03 0 00.977-1.03l-.003-17.014zm-34.028-9.529h8.251v8.497h-8.251v-8.497zm-16.138-9.494l1.639-11.1h7.392l1.641 11.1h-10.672zm4.216 7.647h2.238c-.202 1.636 1.476 9.003.649 10.344h-3.535c-.826-1.34.85-8.707.648-10.344zm15.012 27.359h-26.806v-14.952h26.806v14.952zm2.062 0v-14.952h26.814l.004 14.952h-26.818z" fill="#fff"/></g><defs><clipPath id="la"><path fill="#fff" d="M0 0h66v66H0z"/></clipPath></defs></svg><svg fill="none" viewBox="0 0 18 18" id="gift" xmlns="http://www.w3.org/2000/svg"><path d="M3.375 2.813a2.813 2.813 0 015.625 0 2.813 2.813 0 015.625 0v.006c0 .079 0 .304-.043.556h2.293A1.125 1.125 0 0118 4.5v1.125a1.125 1.125 0 01-1.125 1.125H1.125A1.125 1.125 0 010 5.625V4.5a1.125 1.125 0 011.125-1.125h2.293a3.34 3.34 0 01-.043-.556v-.006zm1.202.562h3.298v-.563a1.688 1.688 0 00-3.375 0c0 .096.002.309.05.484a.587.587 0 00.027.079zm5.548 0h3.299a.64.64 0 00.025-.079c.049-.175.051-.388.051-.483a1.687 1.687 0 10-3.375 0v.562zm6.75 4.5v8.438A1.687 1.687 0 0115.187 18h-5.062V7.875h6.75zM2.812 18a1.687 1.687 0 01-1.687-1.688V7.876h6.75V18H2.812z" fill="#3D4A39"/></svg><svg viewBox="0 0 24 24" id="instagram" xmlns="http://www.w3.org/2000/svg"><path d="M20.947 8.305a6.526 6.526 0 00-.42-2.216 4.609 4.609 0 00-2.632-2.633 6.606 6.606 0 00-2.186-.42c-.962-.043-1.267-.055-3.71-.055-2.441 0-2.754 0-3.71.055a6.606 6.606 0 00-2.184.42 4.607 4.607 0 00-2.633 2.633 6.554 6.554 0 00-.419 2.185c-.043.963-.056 1.268-.056 3.71s0 2.754.056 3.71c.015.748.156 1.486.419 2.187a4.61 4.61 0 002.634 2.632 6.583 6.583 0 002.185.45c.963.043 1.268.056 3.71.056s2.755 0 3.71-.056a6.59 6.59 0 002.186-.419 4.614 4.614 0 002.633-2.633c.263-.7.404-1.438.419-2.187.043-.962.056-1.267.056-3.71-.002-2.442-.002-2.752-.058-3.709zm-8.953 8.297a4.622 4.622 0 01-4.623-4.623 4.622 4.622 0 114.623 4.623zM16.8 8.263a1.076 1.076 0 01-.413-2.073 1.077 1.077 0 11.413 2.073z"/><path d="M11.994 14.982a3.003 3.003 0 100-6.006 3.003 3.003 0 000 6.006z"/></svg><svg fill="none" viewBox="0 0 46 69" id="lighting" xmlns="http://www.w3.org/2000/svg"><path d="M44.465 47.037c.275 0 .539-.11.733-.307.195-.197.304-.463.304-.742 0-13.62-8.483-22.543-21.71-22.983V1.049c0-.278-.11-.545-.304-.742a1.031 1.031 0 00-1.467 0 1.055 1.055 0 00-.304.742v21.956C8.484 23.445 0 32.367 0 45.988c0 .279.11.545.304.742.194.197.458.307.733.307h13.517a8.65 8.65 0 002.784 5.164 8.473 8.473 0 005.41 2.157 8.473 8.473 0 005.414-2.155 8.649 8.649 0 002.786-5.166h13.517zM22.748 25.081c9.762 0 20.182 5.245 20.66 19.859H2.073c.491-14.614 10.91-19.859 20.674-19.859zm0 27.18a6.431 6.431 0 01-3.938-1.549 6.56 6.56 0 01-2.154-3.675h12.19a6.56 6.56 0 01-2.157 3.678 6.43 6.43 0 01-3.941 1.545zm22.844 7.537l-6.437-4.964a1.03 1.03 0 00-1.456.199 1.06 1.06 0 00.198 1.472l6.437 4.964a1.03 1.03 0 001.455-.199 1.055 1.055 0 00.071-1.165 1.048 1.048 0 00-.268-.307zM8.027 54.75L1.77 59.938a1.041 1.041 0 00-.483.724 1.06 1.06 0 00.227.843 1.038 1.038 0 00.779.377 1.028 1.028 0 00.79-.35l6.265-5.181a1.045 1.045 0 00.397-.712 1.06 1.06 0 00-.228-.783 1.04 1.04 0 00-.715-.38 1.028 1.028 0 00-.768.253l-.007.02zm15.025 4.831c-.275 0-.539.11-.733.308a1.055 1.055 0 00-.304.741v7.321c0 .278.109.545.303.742a1.031 1.031 0 001.467 0c.195-.197.304-.464.304-.742v-7.32c0-.279-.11-.546-.304-.742a1.031 1.031 0 00-.733-.308z" fill="#fff"/></svg><svg fill="none" viewBox="0 0 63 63" id="machinery" xmlns="http://www.w3.org/2000/svg"><path d="M57.675 0H5.326a3.523 3.523 0 00-3.519 3.518v52.35a3.52 3.52 0 003.518 3.515H7.03v2.663c0 .527.428.954.955.954h8.311a.954.954 0 00.955-.954v-2.663h28.498v2.663c0 .527.427.954.955.954h8.31a.954.954 0 00.955-.954v-2.663h1.704a3.52 3.52 0 003.519-3.516V3.518A3.519 3.519 0 0057.674 0zM5.326 1.908h52.349c.885 0 1.609.722 1.609 1.61v9.538H3.717V3.518c0-.887.721-1.61 1.61-1.61zM15.341 61.09H8.94v-1.707h6.402v1.707zm38.719 0h-6.403v-1.707h6.403v1.707zm3.614-3.616H5.327a1.61 1.61 0 01-1.61-1.608v-40.9h55.568v40.901c0 .886-.724 1.608-1.61 1.608z" fill="#fff"/><path d="M46.704 11.322a3.844 3.844 0 003.839-3.839 3.844 3.844 0 00-3.84-3.839 3.844 3.844 0 00-3.84 3.84 3.844 3.844 0 003.84 3.838zm0-5.77c1.063 0 1.93.867 1.93 1.931s-.867 1.93-1.93 1.93a1.932 1.932 0 01-1.93-1.93c0-1.064.865-1.93 1.93-1.93zM31.5 11.323a3.843 3.843 0 003.838-3.839 3.843 3.843 0 00-3.838-3.84 3.844 3.844 0 00-3.84 3.84 3.844 3.844 0 003.84 3.838zm0-5.77c1.063 0 1.93.867 1.93 1.931s-.866 1.93-1.93 1.93a1.933 1.933 0 01-1.93-1.93c0-1.064.866-1.93 1.93-1.93zm-15.204 5.77a3.843 3.843 0 003.838-3.839 3.842 3.842 0 00-3.838-3.839 3.844 3.844 0 00-3.839 3.84 3.844 3.844 0 003.84 3.838zm0-5.77c1.064 0 1.93.867 1.93 1.931s-.866 1.93-1.93 1.93a1.933 1.933 0 01-1.93-1.93c0-1.064.866-1.93 1.93-1.93zm36.057 21.474H10.65a.955.955 0 00-.955.955v23.237c0 .528.427.955.955.955h41.703a.955.955 0 00.956-.955V27.981a.956.956 0 00-.956-.955zm-.954 23.238H11.605V28.936h39.794v21.328z" fill="#fff"/></svg><svg viewBox="0 0 22 22" id="phone" xmlns="http://www.w3.org/2000/svg"><path d="M14.667.917H7.333a2.752 2.752 0 00-2.75 2.75v14.666a2.752 2.752 0 002.75 2.75h7.334a2.752 2.752 0 002.75-2.75V3.667a2.752 2.752 0 00-2.75-2.75zM12.833 19.25H9.167v-.917h3.666v.917zm2.98-2.75H6.188V3.667h9.625V16.5z"/></svg><svg fill="none" viewBox="0 0 66 66" id="projects" xmlns="http://www.w3.org/2000/svg"><g clip-path="url(#ra)"><path d="M52.45 11.674A11.465 11.465 0 0041.6 0a9.92 9.92 0 00-5.548 1.691A14.404 14.404 0 0029.308 0a15.91 15.91 0 00-14.726 11.344 11.78 11.78 0 00-8.395 11.694 11.502 11.502 0 0010.849 12.024h6.25l-7.343 13.345a.773.773 0 00-.103.371.352.352 0 00-.02.145l-.847 8.456v.082l-.7 6.992a1.003 1.003 0 00.536.99 1.077 1.077 0 001.134-.082l5.569-4.352 6.682-5.239a.805.805 0 00.392-.392l11.2-20.316h9.178a11.503 11.503 0 0010.848-12.024 11.977 11.977 0 00-7.363-11.364zM25.656 35.063h4.703L21.862 50.49l-3.61-1.98 7.405-13.447zm-9.095 27.183l.35-3.597a5.492 5.492 0 012.488 1.376l-2.838 2.221zm4.475-3.506l-.02.017a7.526 7.526 0 00-3.898-2.154v-.029l.598-6.022 4 2.227c.021 0 .021.021.042.021.02 0 .02.02.041.02l4.002 2.208-4.765 3.712zm6.25-5.26h-.021l-3.589-2 9.034-16.417h4.703L27.286 53.48zM48.964 33H17.036a9.444 9.444 0 01-8.786-9.962 9.671 9.671 0 017.177-9.776h.042a8.157 8.157 0 017.528 8.6 1.031 1.031 0 002.062 0 10.37 10.37 0 00-8.27-10.539 13.74 13.74 0 0112.519-9.26 12.209 12.209 0 016.167 1.67c.02.02.041.02.062.041a8.856 8.856 0 013.691 5.982c.021.103.021.185.042.288a1.032 1.032 0 001.01.908h.124a1.054 1.054 0 00.908-1.155.124.124 0 00-.021-.083 10.768 10.768 0 00-3.424-6.703 7.904 7.904 0 013.733-.949 9.348 9.348 0 018.745 9.405 8.25 8.25 0 00-3.361 1.135 8.335 8.335 0 00-1.774 1.3 10.647 10.647 0 00-2.145 2.845 1.005 1.005 0 00.454 1.382.94.94 0 00.453.124 1.03 1.03 0 00.928-.557 7.963 7.963 0 011.815-2.351 6.34 6.34 0 011.712-1.176 6.542 6.542 0 012.785-.7c.02-.021.02-.021.04 0a9.766 9.766 0 016.498 9.57A9.444 9.444 0 0148.964 33zm-1.135-11.22a1.031 1.031 0 00-.185-1.01.898.898 0 00-.454-.31 1.064 1.064 0 00-1.32.66 9.32 9.32 0 00-.454 3.65.02.02 0 01-.006.015.02.02 0 01-.015.006c-.02.041-.02.062-.04.083l.061-.041a8.16 8.16 0 00.97 3.465 1.031 1.031 0 00.907.556.957.957 0 00.474-.123 1.01 1.01 0 00.433-1.382 7.132 7.132 0 01-.37-5.569zm-26.771 4.249a7.012 7.012 0 01-5.548-.557 1.03 1.03 0 10-.97 1.815 9.28 9.28 0 004.435 1.134c.924 0 1.843-.145 2.722-.433a1.015 1.015 0 00.66-1.3 1.031 1.031 0 00-1.3-.66zm17.717-1.98a9.016 9.016 0 00-1.63-1.3 10.725 10.725 0 00-1.938-.99 9.347 9.347 0 00-1.94-.536 5.126 5.126 0 00-1.113-.124.998.998 0 00-.99.021h-.02a.227.227 0 00-.165 0 8.615 8.615 0 00-3.3.928 1.032 1.032 0 00.928 1.836c.34-.183.7-.329 1.072-.433h.02a6.807 6.807 0 012.496-.29 7.44 7.44 0 012.27.516c.595.23 1.163.527 1.69.887.58.392 1.113.848 1.588 1.362a9.443 9.443 0 011.506 2.165 1.032 1.032 0 00.928.578 1.084 1.084 0 00.788-.373 1.016 1.016 0 00.12-1.133 10.928 10.928 0 00-2.31-3.114zm-6.6-15.221a1.031 1.031 0 00-.949-1.815 7.13 7.13 0 01-5.569.37 1.031 1.031 0 00-1.32.64 1.073 1.073 0 00.66 1.32 9.843 9.843 0 003.053.495 8.716 8.716 0 004.125-1.01z" fill="#fff"/></g><defs><clipPath id="ra"><path fill="#fff" d="M0 0h66v66H0z"/></clipPath></defs></svg><svg fill="none" viewBox="0 0 66 66" id="room-wardrobe" xmlns="http://www.w3.org/2000/svg"><g clip-path="url(#sa)"><path d="M57.725-126.892a1.03 1.03 0 01-1.031-1.031v-4.999H9.303v4.999a1.03 1.03 0 11-2.063 0v-17.919c0-3.032 2.466-5.5 5.496-5.5h40.52c3.032 0 5.5 2.468 5.5 5.5v17.919a1.03 1.03 0 01-1.03 1.031zm-48.422-8.092h47.39v-10.858a3.441 3.441 0 00-3.437-3.438h-40.52a3.439 3.439 0 00-3.432 3.438v10.858h-.001zm52.57-16.561H4.127a1.031 1.031 0 110-2.063h57.748a1.03 1.03 0 110 2.063zm-434.701 117.33a1.032 1.032 0 01-1.031-1.031v-9.552h-11.794v9.552a1.032 1.032 0 01-2.063 0V-50.35h-1.914a1.032 1.032 0 010-2.062h15.879l1.47-13.227v-6.365a1.032 1.032 0 012.062 0v6.407l-.001.075a.805.805 0 01-.006.069l-1.57 14.129v16.078a1.032 1.032 0 01-1.032 1.031zm-12.825-12.645h11.794v-3.49h-11.794v3.49zm-14.473 12.645a.9.9 0 01-.092-.004h-6.834a1.032 1.032 0 010-2.062h5.895v-23.543h-16.736a1.032 1.032 0 110-2.062h35.54a1.032 1.032 0 010 2.062h-16.742v23.543h5.898a1.032 1.032 0 010 2.062h-6.837a.9.9 0 01-.092.004zm-13.441 0c-.57 0-1.032-.462-1.032-1.031v-9.552h-11.792v9.552a1.032 1.032 0 01-2.062 0v-16.078l-1.57-14.13a.87.87 0 01-.006-.073c-.002-.022-.002-.046-.002-.07v-6.407a1.032 1.032 0 012.062 0v6.365l1.47 13.227h15.877a1.032 1.032 0 010 2.062h-1.914v15.104a1.03 1.03 0 01-1.031 1.031zm-12.824-12.645h11.792v-3.49h-11.792v3.49zm137.619 7.882a1.032 1.032 0 01-1.031-1.031v-2.838h-23.698a1.03 1.03 0 01-1.031-1.032V-63.63h-22.666v23.62a1.032 1.032 0 01-2.063 0v-23.62h-3.114a1.032 1.032 0 01-1.031-1.031v-2.58c0-.569.462-1.03 1.031-1.03h57.75a1.03 1.03 0 011.031 1.03v2.58a1.03 1.03 0 01-1.031 1.03h-3.115v23.622a1.03 1.03 0 01-1.032 1.03zm-23.698-5.932h22.667v-8.327h-22.667v8.327zm0-10.39h22.667v-8.33h-22.667v8.33zm23.698-10.393h3.116v-.516h-55.688v.516h52.572zm-11.013 17.651h-2.694a1.03 1.03 0 110-2.062h2.694a1.03 1.03 0 110 2.062zm0-10.394h-2.694a1.03 1.03 0 110-2.062h2.694a1.03 1.03 0 110 2.062zm97.638 19.458a1.032 1.032 0 01-1.031-1.031v-13.228h-47.395v13.228a1.032 1.032 0 01-2.063 0V-63.63h-3.114a1.032 1.032 0 01-1.031-1.031v-2.58c0-.569.462-1.03 1.031-1.03H-198a1.03 1.03 0 011.031 1.03v2.58a1.03 1.03 0 01-1.031 1.03h-3.115v23.622a1.03 1.03 0 01-1.032 1.03zM-225.845-55.3h22.667v-8.33h-22.667v8.33zm-24.727 0h22.666v-8.33h-22.666v8.33zm48.425-10.393h3.116v-.516h-55.688v.516h52.572zm-11.013 7.257h-2.694a1.032 1.032 0 010-2.062h2.694a1.032 1.032 0 010 2.062zm-24.732-.159h-2.696a1.032 1.032 0 010-2.062h2.696a1.032 1.032 0 010 2.062zm109.532 34.876a1.03 1.03 0 01-1.031-1.031v-3.115h-21.721v3.115a1.03 1.03 0 11-2.063 0v-19.471h-3.761a1.03 1.03 0 01-1.031-1.031c.05-1.983 1.618-3.512 3.574-3.512h1.479l.008-22.573c.272-6.855 5.83-12.194 12.654-12.194a12.621 12.621 0 0112.654 12.154l.013 22.613h1.48c1.924 0 3.528 1.563 3.574 3.482v.03a1.03 1.03 0 01-1.031 1.031h-3.764v19.471a1.034 1.034 0 01-1.034 1.031zm-22.752-6.209h21.721v-6.116h-21.721v6.116zm0-8.178h21.721v-6.115h-21.721v6.115zm22.752-8.177h3.293a1.51 1.51 0 00-1.04-.418h-28.288c-.4 0-.767.16-1.04.418h27.075zm-22.492-2.48h21.204l-.011-22.573c-.224-5.664-4.877-10.133-10.592-10.133a10.57 10.57 0 00-10.593 10.173l-.008 22.532zm11.897 16.812h-2.589a1.031 1.031 0 110-2.063h2.589a1.03 1.03 0 110 2.063zm0-8.183h-2.589a1.031 1.031 0 110-2.063h2.589a1.03 1.03 0 110 2.063zm-7.142-18.103a1.029 1.029 0 01-.729-1.76l11.695-11.695a1.03 1.03 0 111.458 1.458l-11.695 11.695a1.024 1.024 0 01-.729.302zm5.094-.722a1.032 1.032 0 01-.729-1.761l5.879-5.876a1.032 1.032 0 011.458 1.46l-5.879 5.875a1.031 1.031 0 01-.729.302zm-4.372-4.374a1.029 1.029 0 01-.729-1.76l5.874-5.877a1.03 1.03 0 111.458 1.459l-5.874 5.876a1.028 1.028 0 01-.729.302zm77.567 39.614a1.033 1.033 0 01-.946-1.44l.745-1.72h-1.639a1.03 1.03 0 01-1.03-1.03v-22.043c0-.6.54-1.073 1.122-1.027h8.646v-12.12h-8.738a1.032 1.032 0 01-1.018-1.193l2.906-18.37a1.03 1.03 0 011.019-.87h13.714c.508 0 .938.369 1.018.87l2.912 18.37a1.033 1.033 0 01-1.019 1.194h-2.301v4.904a1.03 1.03 0 11-2.063 0v-4.904h-4.368v12.12h21.154c.583-.046 1.123.426 1.123 1.027v22.042a1.03 1.03 0 01-1.032 1.031h-1.596l.746 1.719a1.03 1.03 0 11-1.892.82l-1.102-2.54h-24.314l-1.098 2.538c-.17.39-.55.622-.949.622zm27.06-5.222h2.114v-8.956h-29.982v8.956h2.154a.375.375 0 01.047 0h25.62a.36.36 0 01.047 0zM-68.616-39.96h29.982v-8.957h-29.982v8.957zm15.168-25.203h2.127l-2.586-16.306H-65.86l-2.58 16.307h14.992zm1.567 32.78h-3.493a1.031 1.031 0 110-2.063h3.493a1.03 1.03 0 110 2.063zm0-11.028h-3.493a1.031 1.031 0 110-2.063h3.493a1.03 1.03 0 110 2.063zM60.256-41.24c-.4 0-.779-.233-.947-.621l-.965-2.225H7.695l-.961 2.224a1.032 1.032 0 01-1.892-.818l.607-1.405H4.126a1.03 1.03 0 01-1.031-1.031v-19.86c0-.592.53-1.064 1.096-1.03h28.743c.022-.001.046-.007.066-.001.026-.006.044 0 .066.002h28.743c.56-.035 1.096.437 1.096 1.029v19.86c0 .57-.46 1.031-1.031 1.031h-1.282l.608 1.404a1.03 1.03 0 01-.944 1.441zm-1.213-4.907h1.8v-7.869h-26.81v7.869h24.965a.344.344 0 01.045 0zm-52.003 0h24.927v-7.869H5.157v7.869h1.838a.343.343 0 01.045 0zm26.993-9.931h26.81v-7.865h-26.81v7.865zm-28.876 0h26.81v-7.865H5.157v7.865zm43.854 7.029h-3.147a1.031 1.031 0 110-2.063h3.147a1.031 1.031 0 110 2.063zm-28.88 0h-3.146a1.031 1.031 0 110-2.063h3.147a1.031 1.031 0 11-.001 2.063zm28.88-9.931h-3.147a1.031 1.031 0 110-2.063h3.147a1.031 1.031 0 110 2.063zm-28.88 0h-3.146a1.031 1.031 0 110-2.063h3.147a1.031 1.031 0 11-.001 2.063zm-447.47 104.362a1.03 1.03 0 01-.945-1.44l.607-1.404H-429a1.03 1.03 0 01-1.031-1.031V21.648c0-.57.462-1.031 1.031-1.031h57.75c.569 0 1.031.46 1.031 1.031v19.858a1.03 1.03 0 01-1.031 1.031h-1.282l.609 1.403a1.031 1.031 0 01-1.893.82l-.965-2.224h-50.648l-.963 2.223a1.03 1.03 0 01-.947.623zm53.258-4.907h1.8V22.678h-26.81v17.796h25.01zm-52.002 0h24.926v-7.867h-26.812v7.867h1.886zm-1.886-9.93h26.812V22.68h-26.812v7.867zm14.979 7.029h-3.147a1.03 1.03 0 110-2.063h3.147a1.03 1.03 0 110 2.063zm16.078-3.395a1.03 1.03 0 01-1.031-1.032V30a1.03 1.03 0 112.063 0v3.149a1.03 1.03 0 01-1.032 1.03zm-16.078-6.54h-3.147a1.03 1.03 0 110-2.062h3.147a1.03 1.03 0 110 2.063zm125.512 21.982c-.57 0-1.032-.461-1.032-1.032v-.36h-49.939v.36a1.03 1.03 0 11-2.063 0v-.36h-1.77c-.591.065-1.123-.426-1.123-1.028v-29.79c0-.57.462-1.032 1.031-1.032h57.75a1.03 1.03 0 011.027 1.123v9.747c.002.03.004.06.004.091v19.858a1.03 1.03 0 01-1.031 1.032h-1.822v.36a1.032 1.032 0 01-1.032 1.03zm-24.988-3.454h26.81V38.3h-26.81v7.867zm-28.878 0h26.812V38.3h-26.812v7.867zm28.878-9.93h26.81v-8.805a1.379 1.379 0 01-.004-.091v-8.9h-26.806v17.796zm-28.878 0h26.816V18.442h-26.816v17.795zm43.857 7.031h-3.147a1.03 1.03 0 110-2.062h3.147a1.031 1.031 0 110 2.062zm-28.878 0h-3.147a1.03 1.03 0 110-2.062h3.147a1.03 1.03 0 110 2.062zm38.685-13.328a1.03 1.03 0 01-1.031-1.03v-3.145a1.03 1.03 0 112.063 0v3.144c0 .57-.462 1.031-1.032 1.031zm-51.659 0a1.03 1.03 0 01-1.031-1.03v-3.145a1.03 1.03 0 112.062 0v3.144a1.03 1.03 0 01-1.031 1.031zm138.486 24.998c-.57 0-1.032-.461-1.032-1.032v-.365h-49.939v.366a1.03 1.03 0 11-2.063 0v-.366h-1.77c-.588.067-1.123-.426-1.123-1.028V42.58c0-.57.462-1.03 1.031-1.03h4.215v-2.646h-4.216a1.03 1.03 0 110-2.063h24.688l.695-2.256h-15.022a1.03 1.03 0 01-1.031-1.031v-21.46c0-.57.462-1.032 1.031-1.032h37.028a1.03 1.03 0 011.031 1.032v21.46a1.03 1.03 0 01-1.031 1.032h-15.024l.695 2.257H-198a1.03 1.03 0 110 2.062h-4.214v2.645H-198a1.03 1.03 0 011.031 1.031v9.93A1.03 1.03 0 01-198 53.54h-1.822v.367a1.03 1.03 0 01-1.031 1.03zm-24.992-3.46h26.814v-7.866h-26.814v7.866zm-28.874 0h26.812v-7.866h-26.812v7.866zm5.246-9.929h45.197v-2.645h-19.152a.334.334 0 01-.047 0h-6.8a.335.335 0 01-.047 0h-19.15v2.645h-.001zm20.57-4.708h4.054l-.695-2.256h-2.664l-.695 2.256zm4.145-4.318h15.366V13.125h-34.966v19.399h15.364a.368.368 0 00.047 0h4.142l.047-.001zm13.896 16.057h-3.147a1.03 1.03 0 110-2.062h3.147a1.03 1.03 0 110 2.062zm-28.878 0h-3.147a1.03 1.03 0 110-2.062h3.147a1.03 1.03 0 110 2.062zm109.116-1.832a1.03 1.03 0 01-1.032-1.032V43.61h-17.194v2.107a1.03 1.03 0 11-2.062 0V43.61h-17.181v2.083a1.03 1.03 0 11-2.062 0V20.284c0-.57.461-1.032 1.031-1.032h57.748c.57 0 1.031.461 1.031 1.032v25.404a1.03 1.03 0 11-2.062 0v-2.079h-17.186v2.107a1.03 1.03 0 01-1.031 1.032zm1.031-5.201h17.186V27.572h-17.186v13.975zm-19.257 0h17.194V24.479h-17.194v17.068zm-19.243 0h17.181V27.572h-17.181v13.975zm38.5-16.038h17.186v-4.194h-17.186v4.194zm-38.5 0h17.181v-4.194h-17.181v4.194zm19.243-3.093h17.194v-1.101h-17.194v1.101zm20.534 14.19a1.03 1.03 0 01-1.032-1.03v-2.032a1.03 1.03 0 112.063 0v2.031a1.03 1.03 0 01-1.031 1.031zm-23.872 0a1.03 1.03 0 01-1.031-1.03v-2.032a1.03 1.03 0 112.062 0v2.031c0 .57-.46 1.031-1.031 1.031zm32.239-12.392h-2.097a1.03 1.03 0 110-2.063h2.097a1.03 1.03 0 110 2.063zm-38.504 0h-2.093a1.03 1.03 0 110-2.063h2.093a1.03 1.03 0 110 2.063zm118.819 38.691h-27.987a1.03 1.03 0 01-1.031-1.031V4.126c0-.57.46-1.031 1.03-1.031h27.992a1.03 1.03 0 011.027 1.123v19.07a.897.897 0 010 .183v19.066a.897.897 0 010 .184v19.153a1.03 1.03 0 01-1.031 1.031zm-26.955-2.062h25.925V43.66H-66.59v17.183zm0-19.25h25.925V24.411H-66.59v17.182zm0-19.253h25.925V5.157H-66.59V22.34zm1.91 32.47a1.03 1.03 0 01-1.031-1.031v-3.05a1.03 1.03 0 112.062 0v3.05c0 .57-.46 1.03-1.031 1.03zm0-19.254a1.03 1.03 0 01-1.031-1.03v-3.047a1.03 1.03 0 112.062 0v3.046c0 .57-.46 1.032-1.031 1.032zm0-19.252a1.03 1.03 0 01-1.031-1.031v-3.046a1.03 1.03 0 112.062 0v3.046c0 .57-.46 1.031-1.031 1.031zM60.989 62.905H5.011a1.03 1.03 0 01-1.031-1.031V4.126c0-.57.46-1.031 1.03-1.031h55.978c.57 0 1.031.46 1.031 1.031v57.748a1.03 1.03 0 01-1.03 1.031zm-26.956-2.062h25.925V5.157H34.033v55.686zm-27.991 0h25.925V43.656H6.042v17.187zm0-19.25h25.925V5.157H6.042v36.436zm23.7 13.217a1.03 1.03 0 01-1.032-1.031v-3.05a1.03 1.03 0 112.062 0v3.05c0 .57-.46 1.03-1.03 1.03zm6.517-19.254a1.03 1.03 0 01-1.032-1.03v-3.047a1.03 1.03 0 112.063 0v3.046c0 .57-.461 1.032-1.031 1.032zm-6.518 0a1.03 1.03 0 01-1.031-1.03v-3.047a1.03 1.03 0 112.062 0v3.046c0 .57-.46 1.032-1.03 1.032zM-372.135 149.53h-55.98a1.03 1.03 0 01-1.031-1.031V90.751c0-.57.462-1.031 1.031-1.031h55.979a1.03 1.03 0 011.031 1.031V148.5a1.03 1.03 0 01-1.03 1.031zm-26.956-2.062h25.925V91.782h-25.925v55.686zm-27.993 0h25.927V91.782h-25.927v55.686zm40.953-7.636c-4.833 0-8.766-3.932-8.766-8.764v-22.884c0-4.833 3.933-8.765 8.766-8.765 4.835 0 8.77 3.932 8.77 8.765l-.004 22.884c0 4.832-3.932 8.764-8.766 8.764zm0-38.352a6.71 6.71 0 00-6.703 6.703v22.884a6.71 6.71 0 006.703 6.702 6.71 6.71 0 006.703-6.702l.004-22.884c0-3.696-3.009-6.703-6.707-6.703zm-10.734 20.702a1.03 1.03 0 01-1.031-1.032v-3.046a1.03 1.03 0 112.062 0v3.046c0 .571-.462 1.032-1.031 1.032zm-6.518 0a1.031 1.031 0 01-1.031-1.032v-3.046a1.03 1.03 0 112.063 0v3.046a1.03 1.03 0 01-1.032 1.032zm206.41-17.675a1.03 1.03 0 10-2.062 0v11.285h-.071c-.098-2.266-1.957-4.081-4.247-4.081h-4.725c-2.289 0-4.147 1.815-4.244 4.081h-37.989a6.45 6.45 0 00-4.405 1.734v-4.854a1.03 1.03 0 10-2.062 0l-.003 20.569c0 .551.432 1.001.975 1.031v.471a1.03 1.03 0 102.063 0v-.471h53.733v.471a1.03 1.03 0 102.063 0v-.471c.544-.028.977-.48.977-1.031l-.003-28.734zm-11.105 9.267h4.725c1.15 0 2.096.883 2.194 2.005h-9.11a2.202 2.202 0 012.191-2.005zm-42.234 4.08h51.277v3.374h-55.562a4.414 4.414 0 014.285-3.374zm-4.407 14.355v-8.918h55.686l.002 8.918h-55.688zm144.37-6.265c0-.571-.462-1.032-1.031-1.032h-22.684v-9.529a1.03 1.03 0 00-1.031-1.031h-10.313a1.03 1.03 0 00-1.032 1.031v9.529h-4.724c.581-1.827-1.176-9.551-.63-11.016a1.03 1.03 0 00-.965-1.392h-1.39v-3.521h5.501a1.03 1.03 0 001.02-1.183l-1.947-13.163a1.03 1.03 0 00-1.02-.88h-9.172a1.03 1.03 0 00-1.02.88l-1.943 13.163a1.03 1.03 0 001.02 1.183h5.497v3.521h-1.39c-.338 0-.655.165-.847.444a1.027 1.027 0 00-.118.948c.546 1.466-1.208 9.189-.628 11.016h-9.928a1.03 1.03 0 00-1.031 1.032v17.014c0 .55.431 1 .973 1.029v.474a1.03 1.03 0 102.063 0v-.472h53.733v.472a1.03 1.03 0 102.063 0v-.473a1.03 1.03 0 00.977-1.03l-.003-17.014zm-34.028-9.529h8.251v8.497h-8.251v-8.497zm-16.138-9.494l1.639-11.1h7.392l1.641 11.1h-10.672zm4.216 7.647h2.238c-.202 1.636 1.476 9.003.649 10.344h-3.535c-.826-1.34.85-8.707.648-10.344zm15.012 27.359h-26.806v-14.952h26.806v14.952zm2.062 0v-14.952h26.814l.004 14.952h-26.818z" fill="#fff"/></g><defs><clipPath id="sa"><path fill="#fff" d="M0 0h66v66H0z"/></clipPath></defs></svg></svg>